<svg width="33" height="32" viewBox="0 0 33 32" fill="none" xmlns="http://www.w3.org/2000/svg">
    <g clip-path="url(#clip0_9_1329)">
        <path d="M32.4999 24.0598L0.5 29.1125V31.9997H32.4999V24.0598Z" fill="#81D714"/>
        <path d="M32.5003 22.857L18.4108 25.263C18.2198 21.7983 19.8436 19.248 23.6645 19.7291C25.8138 15.3983 25.3362 12.0299 24.3809 9.8645L32.5003 11.2179V22.857Z" fill="#19AA1D"/>
        <path d="M0.5 0V4.81203L11.7239 6.73684C13.1567 5.29324 19.6044 3.84963 23.4253 8.42104L32.4999 9.86465V0H0.5Z" fill="#FFB919"/>
        <path d="M17.216 25.2567L15.7831 25.4974C16.022 19.7284 13.1563 18.766 10.0519 18.2848C8.14139 15.2051 9.09666 10.345 11.0071 8.65919C13.8727 5.77353 18.8877 5.77334 21.9921 8.65919C25.0966 12.0276 23.9025 16.3582 22.9473 18.5236C17.9324 18.0426 16.9772 23.0916 17.216 25.2567Z" fill="#0273F7"/>
        <path d="M14.5895 25.7438L0.5 28.1498V6.25513L10.291 7.69876C7.18653 10.3454 6.94774 15.6386 9.3358 19.7288C13.6343 19.2476 14.8283 22.3755 14.5895 25.7438Z" fill="#19AA1D"/>
    </g>
    <defs>
        <clipPath id="clip0_9_1329">
            <rect width="32" height="32" fill="white" transform="translate(0.5)"/>
        </clipPath>
    </defs>
</svg>
