<svg width="8" height="9" viewBox="0 0 8 9" fill="none" xmlns="http://www.w3.org/2000/svg">
    <path d="M5.28041 7.30234C5.36147 6.90032 5.44153 6.49807 5.36107 6.09115C5.26385 5.5906 5.00473 5.16844 4.53694 4.85063C3.79381 4.34702 2.77414 4.0376 2.38238 3.24148C2.11169 2.69207 2.32146 2.08493 2.55929 1.55935C2.59846 1.47211 2.63548 1.3917 2.67592 1.30383C2.45729 1.32709 2.25129 1.38532 2.06027 1.47446C0.869427 2.04582 0.73304 3.77662 1.76109 5.34511C2.653 6.70468 4.12748 7.49296 5.28041 7.30234Z" fill="#1E1E1C"/>
    <path d="M3.08407 1.29691C3.08086 1.30717 3.0731 1.31822 3.06807 1.33082C2.81103 1.90056 2.56406 2.57157 2.9544 3.14654C3.491 3.93916 4.60879 4.15467 5.29991 4.81039C5.66865 5.16692 5.87092 5.63012 5.88747 6.10397C5.9069 6.48317 5.81941 6.8544 5.74846 7.22759C5.81197 7.20639 5.87702 7.18371 5.94174 7.15179C7.13177 6.583 7.26443 4.85042 6.23865 3.28154C5.43772 2.06283 4.16958 1.3007 3.08407 1.29691Z" fill="#1E1E1C"/>
</svg>
