<svg width="14" height="12" viewBox="0 0 14 12" fill="none" xmlns="http://www.w3.org/2000/svg">
    <path d="M9.24071 11.6125C9.38257 10.9089 9.52267 10.205 9.38187 9.49286C9.21174 8.61689 8.75827 7.87812 7.93964 7.32196C6.63917 6.44064 4.85475 5.89916 4.16917 4.50595C3.69546 3.54447 4.06256 2.48198 4.47875 1.56222C4.5473 1.40954 4.61209 1.26882 4.68286 1.11505C4.30025 1.15576 3.93976 1.25766 3.60547 1.41366C1.5215 2.41353 1.28282 5.44244 3.0819 8.1873C4.64275 10.5665 7.22309 11.946 9.24071 11.6125Z" fill="white"/>
    <path d="M5.39591 1.10173C5.39028 1.11968 5.3767 1.13902 5.36791 1.16106C4.91809 2.15812 4.48589 3.33238 5.16897 4.33858C6.10803 5.72566 8.06416 6.1028 9.27361 7.25031C9.91892 7.87424 10.2729 8.68484 10.3019 9.51407C10.3359 10.1777 10.1827 10.8273 10.0586 11.4804C10.1697 11.4433 10.2836 11.4036 10.3968 11.3478C12.4794 10.3524 12.7115 7.32037 10.9164 4.57482C9.51478 2.44208 7.29555 1.10836 5.39591 1.10173Z" fill="white"/>
</svg>
