<svg width="20" height="14" viewBox="0 0 20 14" fill="none" xmlns="http://www.w3.org/2000/svg">
    <path d="M2.50004 0.333252C2.05801 0.333252 1.63409 0.508847 1.32153 0.821407C1.00897 1.13397 0.833374 1.55789 0.833374 1.99992V11.1666H2.50004C2.50004 11.8296 2.76343 12.4655 3.23227 12.9344C3.70111 13.4032 4.337 13.6666 5.00004 13.6666C5.66308 13.6666 6.29897 13.4032 6.76781 12.9344C7.23665 12.4655 7.50004 11.8296 7.50004 11.1666H12.5C12.5 11.8296 12.7634 12.4655 13.2323 12.9344C13.7011 13.4032 14.337 13.6666 15 13.6666C15.6631 13.6666 16.299 13.4032 16.7678 12.9344C17.2367 12.4655 17.5 11.8296 17.5 11.1666H19.1667V6.99992L16.6667 3.66659H14.1667V0.333252M8.33337 1.99992L11.6667 5.33325L8.33337 8.66658V6.16658H3.33337V4.49992H8.33337M14.1667 4.91658H16.25L17.8917 6.99992H14.1667M5.00004 9.91658C5.33156 9.91658 5.6495 10.0483 5.88392 10.2827C6.11835 10.5171 6.25004 10.8351 6.25004 11.1666C6.25004 11.4981 6.11835 11.816 5.88392 12.0505C5.6495 12.2849 5.33156 12.4166 5.00004 12.4166C4.66852 12.4166 4.35058 12.2849 4.11616 12.0505C3.88174 11.816 3.75004 11.4981 3.75004 11.1666C3.75004 10.8351 3.88174 10.5171 4.11616 10.2827C4.35058 10.0483 4.66852 9.91658 5.00004 9.91658ZM15 9.91658C15.3316 9.91658 15.6495 10.0483 15.8839 10.2827C16.1183 10.5171 16.25 10.8351 16.25 11.1666C16.25 11.4981 16.1183 11.816 15.8839 12.0505C15.6495 12.2849 15.3316 12.4166 15 12.4166C14.6685 12.4166 14.3506 12.2849 14.1162 12.0505C13.8817 11.816 13.75 11.4981 13.75 11.1666C13.75 10.8351 13.8817 10.5171 14.1162 10.2827C14.3506 10.0483 14.6685 9.91658 15 9.91658Z" fill="white"/>
</svg>
