<svg width="23" height="31" viewBox="0 0 23 31" fill="none" xmlns="http://www.w3.org/2000/svg">
    <g clip-path="url(#clip0_9_1338)">
        <path d="M8.38311 8.25069L3.41846 4.0847C6.23718 0.575334 10.7897 -0.362647 14.7029 0.814372L8.38311 8.25069Z" fill="#4274EB"/>
        <path d="M22.1568 10.3939C22.49 18.8445 13.2149 23.2486 12.4899 29.6764C12.2482 30.5093 10.7982 30.5093 10.5522 29.6764C10.1424 27.1552 8.53903 24.8553 6.74927 22.5642L14.4052 13.6073L14.7895 13.1577L20.9951 5.89771C21.6715 7.1931 22.0899 8.69781 22.1568 10.3939Z" fill="#60A850"/>
        <path d="M0.885623 10.3941C0.671774 12.2994 1.12076 14.0511 1.92732 15.7135L8.38173 8.25119L3.41707 4.08521C2.15381 5.65797 1.23879 7.74722 0.885623 10.3941Z" fill="#DA2F2A"/>
        <path d="M1.92627 15.7143C3.0933 18.1197 5.00897 20.3383 6.74852 22.5651L14.4045 13.6082C11.16 16.822 5.1181 12.775 8.38067 8.25195L1.92627 15.7143Z" fill="#ECB72B"/>
        <path d="M20.9957 5.89745C19.6622 3.34389 17.3257 1.60369 14.7018 0.814453L8.38208 8.25077C12.2199 4.12673 17.7366 9.26395 14.7902 13.1574L20.9957 5.89745Z" fill="#5085F7"/>
    </g>
    <defs>
        <clipPath id="clip0_9_1338">
            <rect width="21.3333" height="29.9683" fill="white" transform="translate(0.833252 0.333252)"/>
        </clipPath>
    </defs>
</svg>
