<svg width="16" height="17" viewBox="0 0 16 17" fill="none" xmlns="http://www.w3.org/2000/svg">
    <path d="M8.0176 16.5023H7.9824C3.58095 16.5023 0 12.9203 0 8.51752V8.4823C0 4.07956 3.58095 0.497559 7.9824 0.497559H8.0176C12.419 0.497559 16 4.07956 16 8.4823V8.51752C16 12.9203 12.419 16.5023 8.0176 16.5023ZM7.9824 1.0393C3.87936 1.0393 0.541583 4.37806 0.541583 8.4823V8.51752C0.541583 12.6218 3.87936 15.9605 7.9824 15.9605H8.0176C12.1206 15.9605 15.4584 12.6218 15.4584 8.51752V8.4823C15.4584 4.37806 12.1206 1.0393 8.0176 1.0393H7.9824Z" fill="#FF00EE" fill-opacity="0.97"/>
    <path d="M10.3912 3.91431H5.60793C4.28647 3.91431 3.21143 4.98967 3.21143 6.31152V10.6888C3.21143 12.0106 4.28647 13.086 5.60793 13.086H10.3912C11.7127 13.086 12.7877 12.0106 12.7877 10.6888V6.31152C12.7877 4.98967 11.7127 3.91431 10.3912 3.91431ZM4.05684 6.31152C4.05684 5.45611 4.75277 4.75996 5.60793 4.75996H10.3912C11.2464 4.75996 11.9423 5.45611 11.9423 6.31152V10.6888C11.9423 11.5442 11.2464 12.2404 10.3912 12.2404H5.60793C4.75277 12.2404 4.05684 11.5442 4.05684 10.6888V6.31152Z" fill="#FF00EE" fill-opacity="0.97"/>
    <path d="M8.00016 10.7294C9.22901 10.7294 10.2293 9.72934 10.2293 8.49958C10.2293 7.26983 9.22955 6.26978 8.00016 6.26978C6.77076 6.26978 5.771 7.26983 5.771 8.49958C5.771 9.72934 6.77076 10.7294 8.00016 10.7294ZM8.00016 7.11597C8.76325 7.11597 9.3839 7.73681 9.3839 8.50013C9.3839 9.26344 8.76325 9.88428 8.00016 9.88428C7.23706 9.88428 6.61641 9.26344 6.61641 8.50013C6.61641 7.73681 7.23706 7.11597 8.00016 7.11597Z" fill="#FF00EE" fill-opacity="0.97"/>
    <path d="M10.4358 6.63225C10.7667 6.63225 11.0364 6.36301 11.0364 6.03146C11.0364 5.69992 10.7673 5.43066 10.4358 5.43066C10.1044 5.43066 9.83521 5.69992 9.83521 6.03146C9.83521 6.36301 10.1044 6.63225 10.4358 6.63225Z" fill="#FF00EE" fill-opacity="0.97"/>
</svg>
