<svg width="12" height="18" viewBox="0 0 12 18" fill="none" xmlns="http://www.w3.org/2000/svg">
    <path d="M6.00008 8.58341C5.44755 8.58341 4.91764 8.36392 4.52694 7.97322C4.13624 7.58252 3.91675 7.05262 3.91675 6.50008C3.91675 5.94755 4.13624 5.41764 4.52694 5.02694C4.91764 4.63624 5.44755 4.41675 6.00008 4.41675C6.55262 4.41675 7.08252 4.63624 7.47322 5.02694C7.86392 5.41764 8.08342 5.94755 8.08342 6.50008C8.08342 6.77367 8.02953 7.04458 7.92483 7.29734C7.82013 7.5501 7.66668 7.77977 7.47322 7.97322C7.27977 8.16668 7.0501 8.32013 6.79734 8.42483C6.54458 8.52953 6.27367 8.58341 6.00008 8.58341ZM6.00008 0.666748C4.45299 0.666748 2.96925 1.28133 1.87529 2.37529C0.78133 3.46925 0.166748 4.95299 0.166748 6.50008C0.166748 10.8751 6.00008 17.3334 6.00008 17.3334C6.00008 17.3334 11.8334 10.8751 11.8334 6.50008C11.8334 4.95299 11.2188 3.46925 10.1249 2.37529C9.03091 1.28133 7.54718 0.666748 6.00008 0.666748Z" fill="white"/>
</svg>
