<svg width="12" height="12" viewBox="0 0 12 12" fill="none" xmlns="http://www.w3.org/2000/svg">
    <path d="M2.6375 5.24253C3.5375 7.01128 4.9875 8.46128 6.75625 9.36128L8.13125 7.98628C8.30625 7.81128 8.55 7.76128 8.76875 7.83003C9.46875 8.06128 10.2188 8.18628 11 8.18628C11.1658 8.18628 11.3247 8.25213 11.4419 8.36934C11.5592 8.48655 11.625 8.64552 11.625 8.81128V10.9988C11.625 11.1645 11.5592 11.3235 11.4419 11.4407C11.3247 11.5579 11.1658 11.6238 11 11.6238C8.18207 11.6238 5.47956 10.5044 3.48699 8.51179C1.49442 6.51921 0.375 3.8167 0.375 0.998779C0.375 0.833019 0.440848 0.674048 0.558058 0.556838C0.675268 0.439627 0.83424 0.373779 1 0.373779H3.1875C3.35326 0.373779 3.51223 0.439627 3.62944 0.556838C3.74665 0.674048 3.8125 0.833019 3.8125 0.998779C3.8125 1.78003 3.9375 2.53003 4.16875 3.23003C4.2375 3.44878 4.1875 3.69253 4.0125 3.86753L2.6375 5.24253Z" fill="white"/>
</svg>
