<svg width="16" height="17" viewBox="0 0 16 17" fill="none" xmlns="http://www.w3.org/2000/svg">
    <g clip-path="url(#clip0_9_1288)">
        <path d="M8.01565 16.5H7.98044C3.579 16.5 -0.00195312 12.919 -0.00195312 8.5176V8.4824C-0.00195312 4.08095 3.579 0.5 7.98044 0.5H8.01565C12.4171 0.5 15.998 4.08095 15.998 8.4824V8.5176C15.998 12.919 12.4171 16.5 8.01565 16.5ZM7.98044 1.04158C3.87741 1.04158 0.53963 4.37936 0.53963 8.4824V8.5176C0.53963 12.6206 3.87741 15.9584 7.98044 15.9584H8.01565C12.1187 15.9584 15.4565 12.6206 15.4565 8.5176V8.4824C15.4565 4.37936 12.1187 1.04158 8.01565 1.04158H7.98044Z" fill="#00E510"/>
        <path d="M9.5065 10.7596C7.5281 10.7596 5.91851 9.14944 5.91797 7.17103C5.91851 6.66953 6.32687 6.26172 6.82729 6.26172C6.87874 6.26172 6.92964 6.26605 6.97839 6.27472C7.08562 6.29259 7.18744 6.32888 7.28114 6.38358C7.29468 6.3917 7.30388 6.40469 7.30605 6.41986L7.5151 7.73753C7.51781 7.7527 7.51293 7.7684 7.50264 7.77977C7.38728 7.90759 7.23997 7.99966 7.07587 8.04569L6.99681 8.0679L7.02659 8.14426C7.2963 8.83099 7.84547 9.37961 8.53273 9.6504L8.6091 9.68073L8.6313 9.60166C8.67733 9.43756 8.76941 9.29025 8.89722 9.17489C8.90643 9.16623 8.91888 9.16189 8.93134 9.16189C8.93405 9.16189 8.93676 9.1619 8.94001 9.16244L10.2577 9.37149C10.2734 9.3742 10.2864 9.38286 10.2945 9.3964C10.3487 9.49009 10.385 9.59246 10.4034 9.69969C10.412 9.74735 10.4158 9.79771 10.4158 9.85025C10.4158 10.3512 10.008 10.759 9.5065 10.7596Z" fill="#00E510"/>
        <path d="M12.6129 8.08567C12.5148 6.93911 12.0066 5.87548 11.1821 5.09101C10.3525 4.30191 9.27642 3.86719 8.15097 3.86719C5.68086 3.86719 3.6711 5.94501 3.6711 8.49877C3.6711 9.35586 3.89977 10.1908 4.33271 10.9181L3.36719 13.1278L6.45856 12.7873C6.99613 13.015 7.56508 13.1303 8.15047 13.1303C8.30442 13.1303 8.46235 13.1221 8.62078 13.1051C8.76028 13.0897 8.90127 13.067 9.03977 13.0381C11.1083 12.606 12.6184 10.7079 12.6303 8.52349V8.49877C12.6303 8.3597 12.6244 8.22062 12.6124 8.08619L12.6129 8.08567ZM6.57763 11.8174L4.86729 12.0059L5.37795 10.8362L5.27582 10.6945C5.26835 10.6842 5.26088 10.6739 5.25241 10.6621C4.809 10.0291 4.57484 9.28117 4.57484 8.49928C4.57484 6.46061 6.17907 4.80205 8.15097 4.80205C9.99832 4.80205 11.5642 6.29217 11.7151 8.19435C11.7231 8.29634 11.7276 8.39884 11.7276 8.4998C11.7276 8.52864 11.7271 8.55697 11.7266 8.58736C11.6887 10.2928 10.5364 11.7412 8.92419 12.11C8.80113 12.1383 8.67508 12.1599 8.54953 12.1738C8.419 12.1893 8.28499 12.197 8.15197 12.197C7.67817 12.197 7.21783 12.1022 6.78289 11.9148C6.73457 11.8947 6.68724 11.873 6.6429 11.8509L6.57813 11.8184L6.57763 11.8174Z" fill="#00E510"/>
    </g>
    <defs>
        <clipPath id="clip0_9_1288">
            <rect width="16" height="16" fill="white" transform="translate(-0.0012207 0.5)"/>
        </clipPath>
    </defs>
</svg>
