<svg width="33" height="32" viewBox="0 0 33 32" fill="none" xmlns="http://www.w3.org/2000/svg">
    <g clip-path="url(#clip0_9_1346)">
        <path d="M17.0714 30.6659C16.8604 30.6668 16.6512 30.6268 16.4559 30.5482C16.2606 30.4695 16.0829 30.3537 15.933 30.2074L8.27865 22.6697C7.07009 21.4862 6.11344 20.0771 5.46467 18.525C4.8159 16.9729 4.48806 15.309 4.50033 13.6306C4.49513 12.0056 4.8192 10.3958 5.45358 8.8957C6.08797 7.39556 7.01991 6.03509 8.19484 4.89401C10.5678 2.6108 13.7538 1.33252 17.0714 1.33252C20.3891 1.33252 23.575 2.6108 25.948 4.89401C27.123 6.03509 28.0549 7.39556 28.6893 8.8957C29.3236 10.3958 29.6477 12.0056 29.6425 13.6306C29.6548 15.309 29.327 16.9729 28.6782 18.525C28.0294 20.0771 27.0728 21.4862 25.8642 22.6697L18.2098 30.1936C18.0611 30.3424 17.884 30.4607 17.6886 30.5418C17.4932 30.6228 17.2834 30.665 17.0714 30.6659ZM17.0714 2.69784C14.1174 2.69114 11.2799 3.83204 9.17492 5.87289C8.13207 6.88679 7.30504 8.09532 6.74222 9.42773C6.1794 10.7601 5.8921 12.1898 5.89712 13.6329C5.88594 15.1298 6.17811 16.6139 6.75652 17.9984C7.33494 19.3828 8.18798 20.6397 9.26571 21.6955L16.9178 29.2193C16.9375 29.2395 16.9612 29.2555 16.9874 29.2665C17.0137 29.2774 17.0418 29.2831 17.0703 29.2831C17.0987 29.2831 17.1269 29.2774 17.1531 29.2665C17.1793 29.2555 17.203 29.2395 17.2228 29.2193L24.8771 21.6955C25.9549 20.6397 26.8079 19.3828 27.3863 17.9984C27.9647 16.6139 28.2569 15.1298 28.2458 13.6329C28.2508 12.1898 27.9635 10.7601 27.4006 9.42773C26.8378 8.09532 26.0108 6.88679 24.968 5.87289C22.8629 3.83204 20.0255 2.69114 17.0714 2.69784Z" fill="#FF4433"/>
        <path d="M17.0701 19.9854C15.6028 19.9847 14.1811 19.4832 13.0472 18.5663C11.9132 17.6493 11.1371 16.3736 10.851 14.9565C10.5649 13.5393 10.7865 12.0683 11.4781 10.794C12.1697 9.5197 13.2885 8.52084 14.6439 7.96759C15.9993 7.41429 17.5076 7.34086 18.9119 7.75964C20.3162 8.17848 21.5296 9.06372 22.3455 10.2646C23.1614 11.4655 23.5294 12.9078 23.3867 14.3458C23.244 15.7838 22.5995 17.1287 21.5631 18.1514C20.9736 18.7333 20.2733 19.1949 19.5023 19.5096C18.7313 19.8243 17.9047 19.986 17.0701 19.9854ZM17.0701 8.86923C15.9253 8.87101 14.8165 9.26355 13.9326 9.97997C13.0487 10.6964 12.4443 11.6925 12.2225 12.7984C12.0006 13.9043 12.1749 15.0519 12.7158 16.0455C13.2566 17.0391 14.1305 17.8173 15.1886 18.2477C16.2467 18.678 17.4236 18.7338 18.5188 18.4057C19.614 18.0774 20.5598 17.3855 21.1952 16.4477C21.8304 15.5099 22.116 14.3842 22.0031 13.2624C21.8902 12.1405 21.3859 11.0919 20.576 10.2951C20.1156 9.842 19.5689 9.48282 18.9673 9.23815C18.3657 8.99342 17.7209 8.86808 17.0701 8.86923Z" fill="#FF4433"/>
        <path fill-rule="evenodd" clip-rule="evenodd" d="M17.0704 2.69729C14.1163 2.6906 11.2789 3.8315 9.17386 5.87235C8.13101 6.88624 7.30398 8.09477 6.74116 9.42719C6.17834 10.7596 5.89104 12.1892 5.89606 13.6323C5.88488 15.1293 6.17705 16.6134 6.75546 17.9978C7.33388 19.3822 8.18692 20.6391 9.26465 21.6949L16.9167 29.2188C16.9365 29.2389 16.9602 29.2549 16.9863 29.2659C17.0126 29.2769 17.0407 29.2826 17.0692 29.2826C17.0977 29.2826 17.1258 29.2769 17.152 29.2659C17.1782 29.2549 17.202 29.2389 17.2217 29.2188L24.8761 21.6949C25.9538 20.6391 26.8068 19.3822 27.3853 17.9978C27.9637 16.6134 28.2558 15.1293 28.2447 13.6323C28.2497 12.1892 27.9624 10.7596 27.3996 9.42719C26.8367 8.09477 26.0097 6.88624 24.9669 5.87235C22.8619 3.8315 20.0244 2.6906 17.0704 2.69729ZM13.0475 18.5656C14.1815 19.4825 15.6031 19.984 17.0704 19.9847C17.905 19.9854 18.7316 19.8237 19.5026 19.5089C20.2736 19.1942 20.974 18.7327 21.5634 18.1508C22.5999 17.1281 23.2444 15.7832 23.387 14.3452C23.5297 12.9072 23.1617 11.4649 22.3458 10.264C21.5299 9.06309 20.3165 8.17785 18.9122 7.75901C17.5079 7.34023 15.9997 7.41366 14.6442 7.96696C13.2888 8.52021 12.17 9.51906 11.4784 10.7934C10.7869 12.0677 10.5652 13.5387 10.8513 14.9558C11.1374 16.373 11.9135 17.6486 13.0475 18.5656Z" fill="#FF4433"/>
    </g>
    <defs>
        <clipPath id="clip0_9_1346">
            <rect width="25.1429" height="29.3333" fill="white" transform="translate(4.5 1.33325)"/>
        </clipPath>
    </defs>
</svg>
